<svg width="1280" height="419" viewBox="0 0 1280 419" fill="none" xmlns="http://www.w3.org/2000/svg">
<circle cx="231.5" cy="354.5" r="5.5" fill="black"/>
<circle cx="404.5" cy="353.5" r="5.5" fill="black"/>
<circle cx="320.5" cy="354.5" r="5.5" fill="black"/>
<circle cx="312.5" cy="86.5" r="5.5" fill="black"/>
<circle cx="242.5" cy="86.5" r="5.5" fill="black"/>
<circle cx="415.5" cy="86.5" r="5.5" fill="black"/>
<circle cx="482.5" cy="344.5" r="5.5" fill="black"/>
<circle cx="471.5" cy="80.5" r="5.5" fill="black"/>
<circle cx="628.5" cy="342.5" r="5.5" fill="black"/>
<circle cx="609.5" cy="74.5" r="5.5" fill="black"/>
<circle cx="639.5" cy="71.5" r="5.5" fill="black"/>
<circle cx="793.5" cy="71.5" r="5.5" fill="black"/>
<circle cx="716.5" cy="71.5" r="5.5" fill="black"/>
<circle cx="716.5" cy="348.5" r="5.5" fill="black"/>
<circle cx="826.5" cy="344.5" r="5.5" fill="black"/>
<circle cx="908.5" cy="344.5" r="5.5" fill="black"/>
<circle cx="880.5" cy="214.5" r="5.5" fill="black"/>
<circle cx="827.5" cy="71.5" r="5.5" fill="black"/>
<circle cx="826.5" cy="209.5" r="5.5" fill="black"/>
<circle cx="885.5" cy="65.5" r="5.5" fill="black"/>
<circle cx="956.5" cy="343.5" r="5.5" fill="black"/>
<circle cx="955.5" cy="86.5" r="5.5" fill="black"/>
<circle cx="1035.5" cy="91.5" r="5.5" fill="black"/>
<circle cx="1052.5" cy="160.5" r="5.5" fill="black"/>
<circle cx="993.5" cy="180.5" r="5.5" fill="black"/>
<circle cx="1058.5" cy="337.5" r="5.5" fill="black"/>
<path d="M217.531 337.078V336C218.547 335.901 219.255 335.737 219.656 335.508C220.057 335.273 220.357 334.724 220.555 333.859H221.664V345H220.164V337.078H217.531Z" fill="black"/>
<path d="M390.5 342C390.552 341.036 390.75 340.198 391.094 339.484C391.443 338.771 392.12 338.122 393.125 337.539L394.625 336.672C395.297 336.281 395.768 335.948 396.039 335.672C396.466 335.24 396.68 334.745 396.68 334.188C396.68 333.536 396.484 333.021 396.094 332.641C395.703 332.255 395.182 332.062 394.531 332.062C393.568 332.062 392.901 332.427 392.531 333.156C392.333 333.547 392.224 334.089 392.203 334.781H390.773C390.789 333.807 390.969 333.013 391.312 332.398C391.922 331.315 392.997 330.773 394.539 330.773C395.82 330.773 396.755 331.12 397.344 331.812C397.938 332.505 398.234 333.276 398.234 334.125C398.234 335.021 397.919 335.786 397.289 336.422C396.924 336.792 396.271 337.24 395.328 337.766L394.258 338.359C393.747 338.641 393.346 338.909 393.055 339.164C392.534 339.617 392.206 340.12 392.07 340.672H398.18V342H390.5Z" fill="black"/>
<path d="M312.156 343.305C310.833 343.305 309.872 342.943 309.273 342.219C308.68 341.49 308.383 340.604 308.383 339.562H309.852C309.914 340.286 310.049 340.812 310.258 341.141C310.622 341.729 311.281 342.023 312.234 342.023C312.974 342.023 313.568 341.826 314.016 341.43C314.464 341.034 314.688 340.523 314.688 339.898C314.688 339.128 314.451 338.589 313.977 338.281C313.508 337.974 312.854 337.82 312.016 337.82C311.922 337.82 311.826 337.823 311.727 337.828C311.633 337.828 311.536 337.831 311.438 337.836V336.594C311.583 336.609 311.706 336.62 311.805 336.625C311.904 336.63 312.01 336.633 312.125 336.633C312.651 336.633 313.083 336.549 313.422 336.383C314.016 336.091 314.312 335.57 314.312 334.82C314.312 334.263 314.115 333.833 313.719 333.531C313.323 333.229 312.862 333.078 312.336 333.078C311.398 333.078 310.75 333.391 310.391 334.016C310.193 334.359 310.081 334.849 310.055 335.484H308.664C308.664 334.651 308.831 333.943 309.164 333.359C309.737 332.318 310.745 331.797 312.188 331.797C313.328 331.797 314.211 332.052 314.836 332.562C315.461 333.068 315.773 333.802 315.773 334.766C315.773 335.453 315.589 336.01 315.219 336.438C314.99 336.703 314.693 336.911 314.328 337.062C314.917 337.224 315.375 337.536 315.703 338C316.036 338.458 316.203 339.021 316.203 339.688C316.203 340.755 315.852 341.625 315.148 342.297C314.445 342.969 313.448 343.305 312.156 343.305Z" fill="black"/>
<path d="M302.289 72.0391V66.9688L298.703 72.0391H302.289ZM302.312 76V73.2656H297.406V71.8906L302.531 64.7812H303.719V72.0391H305.367V73.2656H303.719V76H302.312Z" fill="black"/>
<path d="M235.977 72.1484C236.07 72.9505 236.443 73.5052 237.094 73.8125C237.427 73.9688 237.812 74.0469 238.25 74.0469C239.083 74.0469 239.701 73.7812 240.102 73.25C240.503 72.7188 240.703 72.1302 240.703 71.4844C240.703 70.7031 240.464 70.099 239.984 69.6719C239.51 69.2448 238.94 69.0312 238.273 69.0312C237.789 69.0312 237.372 69.125 237.023 69.3125C236.68 69.5 236.385 69.7604 236.141 70.0938L234.922 70.0234L235.773 64H241.586V65.3594H236.828L236.352 68.4688C236.612 68.2708 236.859 68.1224 237.094 68.0234C237.51 67.8516 237.992 67.7656 238.539 67.7656C239.565 67.7656 240.435 68.0964 241.148 68.7578C241.862 69.4193 242.219 70.2578 242.219 71.2734C242.219 72.3307 241.891 73.263 241.234 74.0703C240.583 74.8776 239.542 75.2812 238.109 75.2812C237.198 75.2812 236.391 75.026 235.688 74.5156C234.99 74 234.599 73.2109 234.516 72.1484H235.977Z" fill="black"/>
<path d="M405.68 68.7656C406.93 68.7656 407.799 69.0911 408.289 69.7422C408.784 70.388 409.031 71.0547 409.031 71.7422H407.641C407.557 71.2995 407.424 70.9531 407.242 70.7031C406.904 70.2344 406.391 70 405.703 70C404.917 70 404.292 70.3646 403.828 71.0938C403.365 71.8177 403.107 72.8568 403.055 74.2109C403.378 73.737 403.784 73.3828 404.273 73.1484C404.721 72.9401 405.221 72.8359 405.773 72.8359C406.711 72.8359 407.529 73.1354 408.227 73.7344C408.924 74.3333 409.273 75.2266 409.273 76.4141C409.273 77.4297 408.943 78.3307 408.281 79.1172C407.62 79.8984 406.677 80.2891 405.453 80.2891C404.406 80.2891 403.503 79.8932 402.742 79.1016C401.982 78.3047 401.602 76.9661 401.602 75.0859C401.602 73.6953 401.771 72.5156 402.109 71.5469C402.76 69.6927 403.951 68.7656 405.68 68.7656ZM405.578 79.0391C406.318 79.0391 406.87 78.7917 407.234 78.2969C407.604 77.7969 407.789 77.2083 407.789 76.5312C407.789 75.9583 407.625 75.4141 407.297 74.8984C406.969 74.3776 406.372 74.1172 405.508 74.1172C404.904 74.1172 404.372 74.3177 403.914 74.7188C403.461 75.1198 403.234 75.724 403.234 76.5312C403.234 77.2396 403.44 77.8359 403.852 78.3203C404.268 78.7995 404.844 79.0391 405.578 79.0391Z" fill="black"/>
<path d="M476.367 324V325.227C476.008 325.576 475.529 326.182 474.93 327.047C474.336 327.911 473.81 328.844 473.352 329.844C472.898 330.818 472.555 331.706 472.32 332.508C472.169 333.023 471.974 333.854 471.734 335H470.18C470.534 332.865 471.315 330.74 472.523 328.625C473.237 327.385 473.987 326.315 474.773 325.414H468.586V324H476.367Z" fill="black"/>
<path d="M461.352 65.5C461.971 65.5 462.456 65.3281 462.805 64.9844C463.154 64.6354 463.328 64.2214 463.328 63.7422C463.328 63.3255 463.161 62.9427 462.828 62.5938C462.495 62.2448 461.987 62.0703 461.305 62.0703C460.628 62.0703 460.138 62.2448 459.836 62.5938C459.534 62.9427 459.383 63.3516 459.383 63.8203C459.383 64.3464 459.578 64.7578 459.969 65.0547C460.359 65.3516 460.82 65.5 461.352 65.5ZM461.438 71.0391C462.089 71.0391 462.628 70.8646 463.055 70.5156C463.487 70.1615 463.703 69.6354 463.703 68.9375C463.703 68.2135 463.482 67.6641 463.039 67.2891C462.596 66.9141 462.029 66.7266 461.336 66.7266C460.664 66.7266 460.115 66.9193 459.688 67.3047C459.266 67.6849 459.055 68.2135 459.055 68.8906C459.055 69.474 459.247 69.9792 459.633 70.4062C460.023 70.8281 460.625 71.0391 461.438 71.0391ZM459.438 66.0391C459.047 65.8724 458.742 65.6771 458.523 65.4531C458.112 65.0365 457.906 64.4948 457.906 63.8281C457.906 62.9948 458.208 62.2786 458.812 61.6797C459.417 61.0807 460.273 60.7812 461.383 60.7812C462.456 60.7812 463.297 61.0651 463.906 61.6328C464.516 62.1953 464.82 62.8542 464.82 63.6094C464.82 64.3073 464.643 64.8724 464.289 65.3047C464.091 65.5495 463.784 65.7891 463.367 66.0234C463.831 66.237 464.195 66.4818 464.461 66.7578C464.956 67.2786 465.203 67.9557 465.203 68.7891C465.203 69.7734 464.872 70.6094 464.211 71.2969C463.549 71.9792 462.615 72.3203 461.406 72.3203C460.318 72.3203 459.396 72.026 458.641 71.4375C457.891 70.8438 457.516 69.9844 457.516 68.8594C457.516 68.1979 457.677 67.6276 458 67.1484C458.323 66.6641 458.802 66.2943 459.438 66.0391Z" fill="black"/>
<path d="M620.125 327.297C620.167 328.073 620.466 328.609 621.023 328.906C621.31 329.062 621.633 329.141 621.992 329.141C622.664 329.141 623.237 328.862 623.711 328.305C624.185 327.742 624.521 326.604 624.719 324.891C624.406 325.385 624.018 325.734 623.555 325.938C623.096 326.135 622.602 326.234 622.07 326.234C620.992 326.234 620.138 325.898 619.508 325.227C618.883 324.555 618.57 323.69 618.57 322.633C618.57 321.617 618.88 320.724 619.5 319.953C620.12 319.182 621.034 318.797 622.242 318.797C623.872 318.797 624.997 319.531 625.617 321C625.961 321.807 626.133 322.818 626.133 324.031C626.133 325.401 625.927 326.615 625.516 327.672C624.833 329.432 623.677 330.312 622.047 330.312C620.953 330.312 620.122 330.026 619.555 329.453C618.987 328.88 618.703 328.161 618.703 327.297H620.125ZM622.258 325C622.815 325 623.323 324.818 623.781 324.453C624.245 324.083 624.477 323.44 624.477 322.523C624.477 321.701 624.268 321.089 623.852 320.688C623.44 320.281 622.914 320.078 622.273 320.078C621.586 320.078 621.039 320.31 620.633 320.773C620.232 321.232 620.031 321.846 620.031 322.617C620.031 323.346 620.208 323.927 620.562 324.359C620.917 324.786 621.482 325 622.258 325Z" fill="black"/>
<path d="M589.531 58.0781V57C590.547 56.901 591.255 56.737 591.656 56.5078C592.057 56.2734 592.357 55.724 592.555 54.8594H593.664V66H592.164V58.0781H589.531ZM601.234 54.8125C602.682 54.8125 603.729 55.4089 604.375 56.6016C604.875 57.5234 605.125 58.7865 605.125 60.3906C605.125 61.9115 604.898 63.1693 604.445 64.1641C603.789 65.5911 602.716 66.3047 601.227 66.3047C599.883 66.3047 598.883 65.7214 598.227 64.5547C597.68 63.5807 597.406 62.2734 597.406 60.6328C597.406 59.362 597.57 58.2708 597.898 57.3594C598.513 55.6615 599.625 54.8125 601.234 54.8125ZM601.219 65.0234C601.948 65.0234 602.529 64.7005 602.961 64.0547C603.393 63.4089 603.609 62.2057 603.609 60.4453C603.609 59.1745 603.453 58.1302 603.141 57.3125C602.828 56.4896 602.221 56.0781 601.32 56.0781C600.492 56.0781 599.885 56.4688 599.5 57.25C599.12 58.026 598.93 59.1719 598.93 60.6875C598.93 61.8281 599.052 62.7448 599.297 63.4375C599.672 64.4948 600.312 65.0234 601.219 65.0234Z" fill="black"/>
<path d="M698.531 329.078V328C699.547 327.901 700.255 327.737 700.656 327.508C701.057 327.273 701.357 326.724 701.555 325.859H702.664V337H701.164V329.078H698.531ZM706.25 329.078V328C707.266 327.901 707.974 327.737 708.375 327.508C708.776 327.273 709.076 326.724 709.273 325.859H710.383V337H708.883V329.078H706.25Z" fill="black"/>
<path d="M696.531 53.0781V52C697.547 51.901 698.255 51.737 698.656 51.5078C699.057 51.2734 699.357 50.724 699.555 49.8594H700.664V61H699.164V53.0781H696.531ZM704.406 61C704.458 60.0365 704.656 59.1979 705 58.4844C705.349 57.7708 706.026 57.1224 707.031 56.5391L708.531 55.6719C709.203 55.2812 709.674 54.9479 709.945 54.6719C710.372 54.2396 710.586 53.7448 710.586 53.1875C710.586 52.5365 710.391 52.0208 710 51.6406C709.609 51.2552 709.089 51.0625 708.438 51.0625C707.474 51.0625 706.807 51.4271 706.438 52.1562C706.24 52.5469 706.13 53.0885 706.109 53.7812H704.68C704.695 52.8073 704.875 52.013 705.219 51.3984C705.828 50.3151 706.904 49.7734 708.445 49.7734C709.727 49.7734 710.661 50.1198 711.25 50.8125C711.844 51.5052 712.141 52.276 712.141 53.125C712.141 54.0208 711.826 54.7865 711.195 55.4219C710.831 55.7917 710.177 56.2396 709.234 56.7656L708.164 57.3594C707.654 57.6406 707.253 57.9089 706.961 58.1641C706.44 58.6172 706.112 59.1198 705.977 59.6719H712.086V61H704.406Z" fill="black"/>
<path d="M623.531 55.0781V54C624.547 53.901 625.255 53.737 625.656 53.5078C626.057 53.2734 626.357 52.724 626.555 51.8594H627.664V63H626.164V55.0781H623.531ZM635.062 63.3047C633.74 63.3047 632.779 62.9427 632.18 62.2188C631.586 61.4896 631.289 60.6042 631.289 59.5625H632.758C632.82 60.2865 632.956 60.8125 633.164 61.1406C633.529 61.7292 634.188 62.0234 635.141 62.0234C635.88 62.0234 636.474 61.8255 636.922 61.4297C637.37 61.0339 637.594 60.5234 637.594 59.8984C637.594 59.1276 637.357 58.5885 636.883 58.2812C636.414 57.974 635.76 57.8203 634.922 57.8203C634.828 57.8203 634.732 57.8229 634.633 57.8281C634.539 57.8281 634.443 57.8307 634.344 57.8359V56.5938C634.49 56.6094 634.612 56.6198 634.711 56.625C634.81 56.6302 634.917 56.6328 635.031 56.6328C635.557 56.6328 635.99 56.5495 636.328 56.3828C636.922 56.0911 637.219 55.5703 637.219 54.8203C637.219 54.263 637.021 53.8333 636.625 53.5312C636.229 53.2292 635.768 53.0781 635.242 53.0781C634.305 53.0781 633.656 53.3906 633.297 54.0156C633.099 54.3594 632.987 54.849 632.961 55.4844H631.57C631.57 54.651 631.737 53.9427 632.07 53.3594C632.643 52.3177 633.651 51.7969 635.094 51.7969C636.234 51.7969 637.117 52.0521 637.742 52.5625C638.367 53.0677 638.68 53.8021 638.68 54.7656C638.68 55.4531 638.495 56.0104 638.125 56.4375C637.896 56.7031 637.599 56.9115 637.234 57.0625C637.823 57.224 638.281 57.5365 638.609 58C638.943 58.4583 639.109 59.0208 639.109 59.6875C639.109 60.7552 638.758 61.625 638.055 62.2969C637.352 62.9688 636.354 63.3047 635.062 63.3047Z" fill="black"/>
<path d="M778.531 53.0781V52C779.547 51.901 780.255 51.737 780.656 51.5078C781.057 51.2734 781.357 50.724 781.555 49.8594H782.664V61H781.164V53.0781H778.531ZM791.195 57.0391V51.9688L787.609 57.0391H791.195ZM791.219 61V58.2656H786.312V56.8906L791.438 49.7812H792.625V57.0391H794.273V58.2656H792.625V61H791.219Z" fill="black"/>
<path d="M814.531 48.0781V47C815.547 46.901 816.255 46.737 816.656 46.5078C817.057 46.2734 817.357 45.724 817.555 44.8594H818.664V56H817.164V48.0781H814.531ZM823.883 53.1484C823.977 53.9505 824.349 54.5052 825 54.8125C825.333 54.9688 825.719 55.0469 826.156 55.0469C826.99 55.0469 827.607 54.7812 828.008 54.25C828.409 53.7188 828.609 53.1302 828.609 52.4844C828.609 51.7031 828.37 51.099 827.891 50.6719C827.417 50.2448 826.846 50.0312 826.18 50.0312C825.695 50.0312 825.279 50.125 824.93 50.3125C824.586 50.5 824.292 50.7604 824.047 51.0938L822.828 51.0234L823.68 45H829.492V46.3594H824.734L824.258 49.4688C824.518 49.2708 824.766 49.1224 825 49.0234C825.417 48.8516 825.898 48.7656 826.445 48.7656C827.471 48.7656 828.341 49.0964 829.055 49.7578C829.768 50.4193 830.125 51.2578 830.125 52.2734C830.125 53.3307 829.797 54.263 829.141 55.0703C828.49 55.8776 827.448 56.2812 826.016 56.2812C825.104 56.2812 824.297 56.026 823.594 55.5156C822.896 55 822.505 54.2109 822.422 53.1484H823.883Z" fill="black"/>
<path d="M870.531 48.0781V47C871.547 46.901 872.255 46.737 872.656 46.5078C873.057 46.2734 873.357 45.724 873.555 44.8594H874.664V56H873.164V48.0781H870.531ZM882.586 44.7656C883.836 44.7656 884.706 45.0911 885.195 45.7422C885.69 46.388 885.938 47.0547 885.938 47.7422H884.547C884.464 47.2995 884.331 46.9531 884.148 46.7031C883.81 46.2344 883.297 46 882.609 46C881.823 46 881.198 46.3646 880.734 47.0938C880.271 47.8177 880.013 48.8568 879.961 50.2109C880.284 49.737 880.69 49.3828 881.18 49.1484C881.628 48.9401 882.128 48.8359 882.68 48.8359C883.617 48.8359 884.435 49.1354 885.133 49.7344C885.831 50.3333 886.18 51.2266 886.18 52.4141C886.18 53.4297 885.849 54.3307 885.188 55.1172C884.526 55.8984 883.583 56.2891 882.359 56.2891C881.312 56.2891 880.409 55.8932 879.648 55.1016C878.888 54.3047 878.508 52.9661 878.508 51.0859C878.508 49.6953 878.677 48.5156 879.016 47.5469C879.667 45.6927 880.857 44.7656 882.586 44.7656ZM882.484 55.0391C883.224 55.0391 883.776 54.7917 884.141 54.2969C884.51 53.7969 884.695 53.2083 884.695 52.5312C884.695 51.9583 884.531 51.4141 884.203 50.8984C883.875 50.3776 883.279 50.1172 882.414 50.1172C881.81 50.1172 881.279 50.3177 880.82 50.7188C880.367 51.1198 880.141 51.724 880.141 52.5312C880.141 53.2396 880.346 53.8359 880.758 54.3203C881.174 54.7995 881.75 55.0391 882.484 55.0391Z" fill="black"/>
<path d="M806.531 191.078V190C807.547 189.901 808.255 189.737 808.656 189.508C809.057 189.273 809.357 188.724 809.555 187.859H810.664V199H809.164V191.078H806.531ZM822.273 188V189.227C821.914 189.576 821.435 190.182 820.836 191.047C820.242 191.911 819.716 192.844 819.258 193.844C818.805 194.818 818.461 195.706 818.227 196.508C818.076 197.023 817.88 197.854 817.641 199H816.086C816.44 196.865 817.221 194.74 818.43 192.625C819.143 191.385 819.893 190.315 820.68 189.414H814.492V188H822.273Z" fill="black"/>
<path d="M860.531 194.078V193C861.547 192.901 862.255 192.737 862.656 192.508C863.057 192.273 863.357 191.724 863.555 190.859H864.664V202H863.164V194.078H860.531ZM872.258 195.5C872.878 195.5 873.362 195.328 873.711 194.984C874.06 194.635 874.234 194.221 874.234 193.742C874.234 193.326 874.068 192.943 873.734 192.594C873.401 192.245 872.893 192.07 872.211 192.07C871.534 192.07 871.044 192.245 870.742 192.594C870.44 192.943 870.289 193.352 870.289 193.82C870.289 194.346 870.484 194.758 870.875 195.055C871.266 195.352 871.727 195.5 872.258 195.5ZM872.344 201.039C872.995 201.039 873.534 200.865 873.961 200.516C874.393 200.161 874.609 199.635 874.609 198.938C874.609 198.214 874.388 197.664 873.945 197.289C873.503 196.914 872.935 196.727 872.242 196.727C871.57 196.727 871.021 196.919 870.594 197.305C870.172 197.685 869.961 198.214 869.961 198.891C869.961 199.474 870.154 199.979 870.539 200.406C870.93 200.828 871.531 201.039 872.344 201.039ZM870.344 196.039C869.953 195.872 869.648 195.677 869.43 195.453C869.018 195.036 868.812 194.495 868.812 193.828C868.812 192.995 869.115 192.279 869.719 191.68C870.323 191.081 871.18 190.781 872.289 190.781C873.362 190.781 874.203 191.065 874.812 191.633C875.422 192.195 875.727 192.854 875.727 193.609C875.727 194.307 875.549 194.872 875.195 195.305C874.997 195.549 874.69 195.789 874.273 196.023C874.737 196.237 875.102 196.482 875.367 196.758C875.862 197.279 876.109 197.956 876.109 198.789C876.109 199.773 875.779 200.609 875.117 201.297C874.456 201.979 873.521 202.32 872.312 202.32C871.224 202.32 870.302 202.026 869.547 201.438C868.797 200.844 868.422 199.984 868.422 198.859C868.422 198.198 868.583 197.628 868.906 197.148C869.229 196.664 869.708 196.294 870.344 196.039Z" fill="black"/>
<path d="M806.531 327.078V326C807.547 325.901 808.255 325.737 808.656 325.508C809.057 325.273 809.357 324.724 809.555 323.859H810.664V335H809.164V327.078H806.531ZM816.031 332.297C816.073 333.073 816.372 333.609 816.93 333.906C817.216 334.062 817.539 334.141 817.898 334.141C818.57 334.141 819.143 333.862 819.617 333.305C820.091 332.742 820.427 331.604 820.625 329.891C820.312 330.385 819.924 330.734 819.461 330.938C819.003 331.135 818.508 331.234 817.977 331.234C816.898 331.234 816.044 330.898 815.414 330.227C814.789 329.555 814.477 328.69 814.477 327.633C814.477 326.617 814.786 325.724 815.406 324.953C816.026 324.182 816.94 323.797 818.148 323.797C819.779 323.797 820.904 324.531 821.523 326C821.867 326.807 822.039 327.818 822.039 329.031C822.039 330.401 821.833 331.615 821.422 332.672C820.74 334.432 819.583 335.312 817.953 335.312C816.859 335.312 816.029 335.026 815.461 334.453C814.893 333.88 814.609 333.161 814.609 332.297H816.031ZM818.164 330C818.721 330 819.229 329.818 819.688 329.453C820.151 329.083 820.383 328.44 820.383 327.523C820.383 326.701 820.174 326.089 819.758 325.688C819.346 325.281 818.82 325.078 818.18 325.078C817.492 325.078 816.945 325.31 816.539 325.773C816.138 326.232 815.938 326.846 815.938 327.617C815.938 328.346 816.115 328.927 816.469 329.359C816.823 329.786 817.388 330 818.164 330Z" fill="black"/>
<path d="M883.5 332C883.552 331.036 883.75 330.198 884.094 329.484C884.443 328.771 885.12 328.122 886.125 327.539L887.625 326.672C888.297 326.281 888.768 325.948 889.039 325.672C889.466 325.24 889.68 324.745 889.68 324.188C889.68 323.536 889.484 323.021 889.094 322.641C888.703 322.255 888.182 322.062 887.531 322.062C886.568 322.062 885.901 322.427 885.531 323.156C885.333 323.547 885.224 324.089 885.203 324.781H883.773C883.789 323.807 883.969 323.013 884.312 322.398C884.922 321.315 885.997 320.773 887.539 320.773C888.82 320.773 889.755 321.12 890.344 321.812C890.938 322.505 891.234 323.276 891.234 324.125C891.234 325.021 890.919 325.786 890.289 326.422C889.924 326.792 889.271 327.24 888.328 327.766L887.258 328.359C886.747 328.641 886.346 328.909 886.055 329.164C885.534 329.617 885.206 330.12 885.07 330.672H891.18V332H883.5ZM896.234 320.812C897.682 320.812 898.729 321.409 899.375 322.602C899.875 323.523 900.125 324.786 900.125 326.391C900.125 327.911 899.898 329.169 899.445 330.164C898.789 331.591 897.716 332.305 896.227 332.305C894.883 332.305 893.883 331.721 893.227 330.555C892.68 329.581 892.406 328.273 892.406 326.633C892.406 325.362 892.57 324.271 892.898 323.359C893.513 321.661 894.625 320.812 896.234 320.812ZM896.219 331.023C896.948 331.023 897.529 330.701 897.961 330.055C898.393 329.409 898.609 328.206 898.609 326.445C898.609 325.174 898.453 324.13 898.141 323.312C897.828 322.49 897.221 322.078 896.32 322.078C895.492 322.078 894.885 322.469 894.5 323.25C894.12 324.026 893.93 325.172 893.93 326.688C893.93 327.828 894.052 328.745 894.297 329.438C894.672 330.495 895.312 331.023 896.219 331.023Z" fill="black"/>
<path d="M937.5 335C937.552 334.036 937.75 333.198 938.094 332.484C938.443 331.771 939.12 331.122 940.125 330.539L941.625 329.672C942.297 329.281 942.768 328.948 943.039 328.672C943.466 328.24 943.68 327.745 943.68 327.188C943.68 326.536 943.484 326.021 943.094 325.641C942.703 325.255 942.182 325.062 941.531 325.062C940.568 325.062 939.901 325.427 939.531 326.156C939.333 326.547 939.224 327.089 939.203 327.781H937.773C937.789 326.807 937.969 326.013 938.312 325.398C938.922 324.315 939.997 323.773 941.539 323.773C942.82 323.773 943.755 324.12 944.344 324.812C944.938 325.505 945.234 326.276 945.234 327.125C945.234 328.021 944.919 328.786 944.289 329.422C943.924 329.792 943.271 330.24 942.328 330.766L941.258 331.359C940.747 331.641 940.346 331.909 940.055 332.164C939.534 332.617 939.206 333.12 939.07 333.672H945.18V335H937.5ZM947.438 327.078V326C948.453 325.901 949.161 325.737 949.562 325.508C949.964 325.273 950.263 324.724 950.461 323.859H951.57V335H950.07V327.078H947.438Z" fill="black"/>
<path d="M934.5 77C934.552 76.0365 934.75 75.1979 935.094 74.4844C935.443 73.7708 936.12 73.1224 937.125 72.5391L938.625 71.6719C939.297 71.2812 939.768 70.9479 940.039 70.6719C940.466 70.2396 940.68 69.7448 940.68 69.1875C940.68 68.5365 940.484 68.0208 940.094 67.6406C939.703 67.2552 939.182 67.0625 938.531 67.0625C937.568 67.0625 936.901 67.4271 936.531 68.1562C936.333 68.5469 936.224 69.0885 936.203 69.7812H934.773C934.789 68.8073 934.969 68.013 935.312 67.3984C935.922 66.3151 936.997 65.7734 938.539 65.7734C939.82 65.7734 940.755 66.1198 941.344 66.8125C941.938 67.5052 942.234 68.276 942.234 69.125C942.234 70.0208 941.919 70.7865 941.289 71.4219C940.924 71.7917 940.271 72.2396 939.328 72.7656L938.258 73.3594C937.747 73.6406 937.346 73.9089 937.055 74.1641C936.534 74.6172 936.206 75.1198 936.07 75.6719H942.18V77H934.5ZM943.406 77C943.458 76.0365 943.656 75.1979 944 74.4844C944.349 73.7708 945.026 73.1224 946.031 72.5391L947.531 71.6719C948.203 71.2812 948.674 70.9479 948.945 70.6719C949.372 70.2396 949.586 69.7448 949.586 69.1875C949.586 68.5365 949.391 68.0208 949 67.6406C948.609 67.2552 948.089 67.0625 947.438 67.0625C946.474 67.0625 945.807 67.4271 945.438 68.1562C945.24 68.5469 945.13 69.0885 945.109 69.7812H943.68C943.695 68.8073 943.875 68.013 944.219 67.3984C944.828 66.3151 945.904 65.7734 947.445 65.7734C948.727 65.7734 949.661 66.1198 950.25 66.8125C950.844 67.5052 951.141 68.276 951.141 69.125C951.141 70.0208 950.826 70.7865 950.195 71.4219C949.831 71.7917 949.177 72.2396 948.234 72.7656L947.164 73.3594C946.654 73.6406 946.253 73.9089 945.961 74.1641C945.44 74.6172 945.112 75.1198 944.977 75.6719H951.086V77H943.406Z" fill="black"/>
<path d="M1016.5 81C1016.55 80.0365 1016.75 79.1979 1017.09 78.4844C1017.44 77.7708 1018.12 77.1224 1019.12 76.5391L1020.62 75.6719C1021.3 75.2812 1021.77 74.9479 1022.04 74.6719C1022.47 74.2396 1022.68 73.7448 1022.68 73.1875C1022.68 72.5365 1022.48 72.0208 1022.09 71.6406C1021.7 71.2552 1021.18 71.0625 1020.53 71.0625C1019.57 71.0625 1018.9 71.4271 1018.53 72.1562C1018.33 72.5469 1018.22 73.0885 1018.2 73.7812H1016.77C1016.79 72.8073 1016.97 72.013 1017.31 71.3984C1017.92 70.3151 1019 69.7734 1020.54 69.7734C1021.82 69.7734 1022.76 70.1198 1023.34 70.8125C1023.94 71.5052 1024.23 72.276 1024.23 73.125C1024.23 74.0208 1023.92 74.7865 1023.29 75.4219C1022.92 75.7917 1022.27 76.2396 1021.33 76.7656L1020.26 77.3594C1019.75 77.6406 1019.35 77.9089 1019.05 78.1641C1018.53 78.6172 1018.21 79.1198 1018.07 79.6719H1024.18V81H1016.5ZM1029.06 81.3047C1027.74 81.3047 1026.78 80.9427 1026.18 80.2188C1025.59 79.4896 1025.29 78.6042 1025.29 77.5625H1026.76C1026.82 78.2865 1026.96 78.8125 1027.16 79.1406C1027.53 79.7292 1028.19 80.0234 1029.14 80.0234C1029.88 80.0234 1030.47 79.8255 1030.92 79.4297C1031.37 79.0339 1031.59 78.5234 1031.59 77.8984C1031.59 77.1276 1031.36 76.5885 1030.88 76.2812C1030.41 75.974 1029.76 75.8203 1028.92 75.8203C1028.83 75.8203 1028.73 75.8229 1028.63 75.8281C1028.54 75.8281 1028.44 75.8307 1028.34 75.8359V74.5938C1028.49 74.6094 1028.61 74.6198 1028.71 74.625C1028.81 74.6302 1028.92 74.6328 1029.03 74.6328C1029.56 74.6328 1029.99 74.5495 1030.33 74.3828C1030.92 74.0911 1031.22 73.5703 1031.22 72.8203C1031.22 72.263 1031.02 71.8333 1030.62 71.5312C1030.23 71.2292 1029.77 71.0781 1029.24 71.0781C1028.3 71.0781 1027.66 71.3906 1027.3 72.0156C1027.1 72.3594 1026.99 72.849 1026.96 73.4844H1025.57C1025.57 72.651 1025.74 71.9427 1026.07 71.3594C1026.64 70.3177 1027.65 69.7969 1029.09 69.7969C1030.23 69.7969 1031.12 70.0521 1031.74 70.5625C1032.37 71.0677 1032.68 71.8021 1032.68 72.7656C1032.68 73.4531 1032.49 74.0104 1032.12 74.4375C1031.9 74.7031 1031.6 74.9115 1031.23 75.0625C1031.82 75.224 1032.28 75.5365 1032.61 76C1032.94 76.4583 1033.11 77.0208 1033.11 77.6875C1033.11 78.7552 1032.76 79.625 1032.05 80.2969C1031.35 80.9688 1030.35 81.3047 1029.06 81.3047Z" fill="black"/>
<path d="M1033.5 150C1033.55 149.036 1033.75 148.198 1034.09 147.484C1034.44 146.771 1035.12 146.122 1036.12 145.539L1037.62 144.672C1038.3 144.281 1038.77 143.948 1039.04 143.672C1039.47 143.24 1039.68 142.745 1039.68 142.188C1039.68 141.536 1039.48 141.021 1039.09 140.641C1038.7 140.255 1038.18 140.062 1037.53 140.062C1036.57 140.062 1035.9 140.427 1035.53 141.156C1035.33 141.547 1035.22 142.089 1035.2 142.781H1033.77C1033.79 141.807 1033.97 141.013 1034.31 140.398C1034.92 139.315 1036 138.773 1037.54 138.773C1038.82 138.773 1039.76 139.12 1040.34 139.812C1040.94 140.505 1041.23 141.276 1041.23 142.125C1041.23 143.021 1040.92 143.786 1040.29 144.422C1039.92 144.792 1039.27 145.24 1038.33 145.766L1037.26 146.359C1036.75 146.641 1036.35 146.909 1036.05 147.164C1035.53 147.617 1035.21 148.12 1035.07 148.672H1041.18V150H1033.5ZM1047.2 146.039V140.969L1043.61 146.039H1047.2ZM1047.22 150V147.266H1042.31V145.891L1047.44 138.781H1048.62V146.039H1050.27V147.266H1048.62V150H1047.22Z" fill="black"/>
<path d="M978.5 170C978.552 169.036 978.75 168.198 979.094 167.484C979.443 166.771 980.12 166.122 981.125 165.539L982.625 164.672C983.297 164.281 983.768 163.948 984.039 163.672C984.466 163.24 984.68 162.745 984.68 162.188C984.68 161.536 984.484 161.021 984.094 160.641C983.703 160.255 983.182 160.062 982.531 160.062C981.568 160.062 980.901 160.427 980.531 161.156C980.333 161.547 980.224 162.089 980.203 162.781H978.773C978.789 161.807 978.969 161.013 979.312 160.398C979.922 159.315 980.997 158.773 982.539 158.773C983.82 158.773 984.755 159.12 985.344 159.812C985.938 160.505 986.234 161.276 986.234 162.125C986.234 163.021 985.919 163.786 985.289 164.422C984.924 164.792 984.271 165.24 983.328 165.766L982.258 166.359C981.747 166.641 981.346 166.909 981.055 167.164C980.534 167.617 980.206 168.12 980.07 168.672H986.18V170H978.5ZM988.883 167.148C988.977 167.951 989.349 168.505 990 168.812C990.333 168.969 990.719 169.047 991.156 169.047C991.99 169.047 992.607 168.781 993.008 168.25C993.409 167.719 993.609 167.13 993.609 166.484C993.609 165.703 993.37 165.099 992.891 164.672C992.417 164.245 991.846 164.031 991.18 164.031C990.695 164.031 990.279 164.125 989.93 164.312C989.586 164.5 989.292 164.76 989.047 165.094L987.828 165.023L988.68 159H994.492V160.359H989.734L989.258 163.469C989.518 163.271 989.766 163.122 990 163.023C990.417 162.852 990.898 162.766 991.445 162.766C992.471 162.766 993.341 163.096 994.055 163.758C994.768 164.419 995.125 165.258 995.125 166.273C995.125 167.331 994.797 168.263 994.141 169.07C993.49 169.878 992.448 170.281 991.016 170.281C990.104 170.281 989.297 170.026 988.594 169.516C987.896 169 987.505 168.211 987.422 167.148H988.883Z" fill="black"/>
<path d="M1033.5 325C1033.55 324.036 1033.75 323.198 1034.09 322.484C1034.44 321.771 1035.12 321.122 1036.12 320.539L1037.62 319.672C1038.3 319.281 1038.77 318.948 1039.04 318.672C1039.47 318.24 1039.68 317.745 1039.68 317.188C1039.68 316.536 1039.48 316.021 1039.09 315.641C1038.7 315.255 1038.18 315.062 1037.53 315.062C1036.57 315.062 1035.9 315.427 1035.53 316.156C1035.33 316.547 1035.22 317.089 1035.2 317.781H1033.77C1033.79 316.807 1033.97 316.013 1034.31 315.398C1034.92 314.315 1036 313.773 1037.54 313.773C1038.82 313.773 1039.76 314.12 1040.34 314.812C1040.94 315.505 1041.23 316.276 1041.23 317.125C1041.23 318.021 1040.92 318.786 1040.29 319.422C1039.92 319.792 1039.27 320.24 1038.33 320.766L1037.26 321.359C1036.75 321.641 1036.35 321.909 1036.05 322.164C1035.53 322.617 1035.21 323.12 1035.07 323.672H1041.18V325H1033.5ZM1046.59 313.766C1047.84 313.766 1048.71 314.091 1049.2 314.742C1049.69 315.388 1049.94 316.055 1049.94 316.742H1048.55C1048.46 316.299 1048.33 315.953 1048.15 315.703C1047.81 315.234 1047.3 315 1046.61 315C1045.82 315 1045.2 315.365 1044.73 316.094C1044.27 316.818 1044.01 317.857 1043.96 319.211C1044.28 318.737 1044.69 318.383 1045.18 318.148C1045.63 317.94 1046.13 317.836 1046.68 317.836C1047.62 317.836 1048.43 318.135 1049.13 318.734C1049.83 319.333 1050.18 320.227 1050.18 321.414C1050.18 322.43 1049.85 323.331 1049.19 324.117C1048.53 324.898 1047.58 325.289 1046.36 325.289C1045.31 325.289 1044.41 324.893 1043.65 324.102C1042.89 323.305 1042.51 321.966 1042.51 320.086C1042.51 318.695 1042.68 317.516 1043.02 316.547C1043.67 314.693 1044.86 313.766 1046.59 313.766ZM1046.48 324.039C1047.22 324.039 1047.78 323.792 1048.14 323.297C1048.51 322.797 1048.7 322.208 1048.7 321.531C1048.7 320.958 1048.53 320.414 1048.2 319.898C1047.88 319.378 1047.28 319.117 1046.41 319.117C1045.81 319.117 1045.28 319.318 1044.82 319.719C1044.37 320.12 1044.14 320.724 1044.14 321.531C1044.14 322.24 1044.35 322.836 1044.76 323.32C1045.17 323.799 1045.75 324.039 1046.48 324.039Z" fill="black"/>
</svg>
