<svg width="1403" height="271" viewBox="0 0 1403 271" fill="none" xmlns="http://www.w3.org/2000/svg">
<path d="M1401 91.5L1381 110L1375 115.412V270.447H1350.8L1327.97 267.323L1301.28 263.418L1282.97 256.779L1272.56 251.507L1262.16 242.134L1251.99 233.153L1239.32 225.147L1226.43 223.585H1208.8L1190.48 225.147L1167.42 237.058L1153.85 250.531L1120.15 261.66L1100.48 262.441L1004.6 263.613L993.749 259.903L977.92 253.655L964.805 240.768L955.986 226.709L947.167 210.893L938.8 198.787L928.851 189.22L898.776 181.995H878.198L845.41 188.048L799.856 195.663L781.765 197.811L756.439 200.74H734.279L708.5 199.568L687 200.74L675.588 199.568H663.151L645.253 189.22L618.149 188.048H600.762L559.851 181.995L503.599 189.22H465.245L446.835 181.995L437.63 169.826H414.107L380.355 181.995H322.057L257.623 188.048L224.894 181.995H181.426L111.878 188.048L50 189.22V64.5L77.5 76" stroke="white"/>
<path d="M308.864 35.7664L281.054 20.8315L215.247 56.727H188.215L164.704 76.707H135.982L109.682 85.785L96.385 71.0062L77.6044 76.7384L48.1806 64.1823L1 1.33359L2 1L48.8194 63.3677L77.6613 75.6755L96.7023 69.8638L109.982 84.6236L135.815 75.707H164.337L187.847 55.727H214.992L281.05 19.6945L309.461 34.9516L330.862 55.7565L380.681 63.2639L452.22 41.9564L516.892 47.7529L525.051 55.727H545.864L626.107 75.707H643.056L654.828 83.1064L676.497 84.7063L694.123 86.3161L714.548 89.3366L736.381 94.1729L750.811 99.4226L766.388 107.491L773.719 112.261L813.88 115.666L844.909 113.657L937.365 112.451L937.388 112.45L961.249 111.043H979.286L993.036 108.06L1008.31 97.0183L1023.04 92.1483L1045.87 90.7338L1089.27 96.9763L1089.29 96.9798L1134.48 106.63L1134.49 106.633L1134.5 106.635L1168.75 115.47L1182.91 116.268L1199.19 113.681L1214 103.042L1235.91 96.9744L1271.82 93.9497L1315.86 100.798L1363.58 112.859L1363.62 112.867L1374.47 114.63L1400.94 91.0636L1402.06 91.4084L1374.78 115.693L1363.4 113.842L1315.66 101.779L1271.78 94.9562L1236.09 97.9631L1214.44 103.959L1199.58 114.632L1182.96 117.272L1168.6 116.462L1134.27 107.608L1134.25 107.604L1089.11 97.9637L1089.08 97.9577L1045.83 91.7382L1023.23 93.1384L1008.77 97.9193L993.453 108.993L979.393 112.043H961.264L937.412 113.45L844.961 114.655L844.935 114.656L813.87 116.668L773.385 113.237L765.884 108.356L750.408 100.34L736.101 95.1351L714.366 90.3206L694.019 87.3107L693.991 87.3074L676.415 85.7029L676.406 85.7022L654.507 84.0853L642.768 76.707H625.985L545.742 56.727H524.644L516.448 48.7171L452.322 42.9695L380.753 64.286L330.395 56.6974L308.864 35.7664Z" fill="white" stroke="white" stroke-width="0.5"/>
</svg>
