<svg width="1402" height="270" viewBox="0 0 1402 270" fill="none" xmlns="http://www.w3.org/2000/svg">
<path d="M1400 90.5L1380 109L1374 114.412V269.447H1349.8L1326.97 266.323L1300.28 262.418L1281.97 255.779L1271.56 250.507L1261.16 241.134L1250.99 232.153L1238.32 224.147L1225.43 222.585H1207.8L1189.48 224.147L1166.42 236.058L1152.85 249.531L1119.15 260.66L1099.48 261.441L1003.6 262.613L992.749 258.903L976.92 252.655L963.805 239.768L954.986 225.709L946.167 209.893L937.8 197.787L927.851 188.22L897.776 180.995H877.198L844.41 187.048L798.856 194.663L780.765 196.811L755.439 199.74H733.279L707.5 198.568L686 199.74L674.588 198.568H662.151L644.253 188.22L617.149 187.048H599.762L558.851 180.995L502.599 188.22H464.245L445.835 180.995L436.63 168.826H413.107L379.355 180.995H321.057L256.623 187.048L223.894 180.995H180.426L110.878 187.048L49 188.22V63.5L76.5 75" stroke="black"/>
<path d="M307.864 34.7664L280.054 19.8315L214.247 55.727H187.215L163.704 75.707H134.982L108.682 84.785L95.385 70.0062L76.6044 75.7384L47.1806 63.1823L0 0.333588L1 0L47.8194 62.3677L76.6613 74.6755L95.7023 68.8638L108.982 83.6236L134.815 74.707H163.337L186.847 54.727H213.992L280.05 18.6945L308.461 33.9516L329.862 54.7565L379.681 62.2639L451.22 40.9564L515.892 46.7529L524.051 54.727H544.864L625.107 74.707H642.056L653.828 82.1064L675.497 83.7063L693.123 85.3161L713.548 88.3366L735.381 93.1729L749.811 98.4226L765.388 106.491L772.719 111.261L812.88 114.666L843.909 112.657L936.365 111.451L936.388 111.45L960.249 110.043H978.286L992.036 107.06L1007.31 96.0183L1022.04 91.1483L1044.87 89.7338L1088.27 95.9763L1088.29 95.9798L1133.48 105.63L1133.49 105.633L1133.5 105.635L1167.75 114.47L1181.91 115.268L1198.19 112.681L1213 102.042L1234.91 95.9744L1270.82 92.9497L1314.86 99.7984L1362.58 111.859L1362.62 111.867L1373.47 113.63L1399.94 90.0636L1401.06 90.4084L1373.78 114.693L1362.4 112.842L1314.66 100.779L1270.78 93.9562L1235.09 96.9631L1213.44 102.959L1198.58 113.632L1181.96 116.272L1167.6 115.462L1133.27 106.608L1133.25 106.604L1088.11 96.9637L1088.08 96.9577L1044.83 90.7382L1022.23 92.1384L1007.77 96.9193L992.453 107.993L978.393 111.043H960.264L936.412 112.45L843.961 113.655L843.935 113.656L812.87 115.668L772.385 112.237L764.884 107.356L749.408 99.3402L735.101 94.1351L713.366 89.3206L693.019 86.3107L692.991 86.3074L675.415 84.7029L675.406 84.7022L653.507 83.0853L641.768 75.707H624.985L544.742 55.727H523.644L515.448 47.7171L451.322 41.9695L379.753 63.286L329.395 55.6974L307.864 34.7664Z" fill="black"/>
</svg>
