<svg width="1280" height="253" viewBox="0 0 1280 253" fill="none" xmlns="http://www.w3.org/2000/svg">
<path d="M675 75.5L654.422 70.801L632.5 67.5L600.5 65L593 64.5L581.5 57H564.5L484.5 37H463.5L455 29L391 23L319.5 44.5L269 37L248 16L219.5 1L153.5 37H126.5L103 57H74.5L48.5 66L35 51.5L16 57L-13 44.5532V170.773L48.8777 169.601L118.426 163.548H161.894L194.623 169.601L259.057 163.548H317.355L351.107 151.379H374.63L383.835 163.548L402.245 170.773H440.599L496.851 163.548L537.762 169.601H555.149L582.253 170.773L600.151 181.122H612.588L623.895 182.488L645.151 186.393L670.929 187.565H693.09L718.416 184.636L736.506 182.488L782.41 169.601L815.198 163.548H835.776L865.851 170.773L875.8 180.34L884.167 192.446L892.986 208.262L901.805 222.321L914.92 235.208L930.749 241.456L941.604 245.166L1037.48 243.994L1057.15 243.213L1090.85 232.084L1104.42 218.611L1127.48 206.7L1145.8 205.138H1163.43L1176.32 206.7L1188.99 214.706L1199.16 223.688L1209.56 233.06L1219.97 238.332L1238.28 244.971L1264.97 248.876L1287.8 252H1312V96.9655L1304.99 95.0129L1254 82L1210.5 75.5L1174.5 78.5L1153 84L1138 95L1121 97.5L1107.5 96.9655L1072.5 88L1028 78.5L984.5 72L962 73.5L946.578 78.416L932 89L918 92.5L899.5 92L876 93.5L842.5 94L783.5 95L752.5 97L712 93.5L704.5 88.5L689 80.5L675 75.5Z" stroke="black"/>
</svg>
