<svg width="1359" height="362" viewBox="0 0 1359 362" fill="none" xmlns="http://www.w3.org/2000/svg">
<path d="M651.734 235.347L667.369 248.544L761.59 272.086L803.969 261.385L808.083 252.111L828.656 245.334L852.108 248.544L899.424 239.627L914.236 267.092L950.855 285.997L966.078 277.436L984.182 283.143L996.525 299.908L1034.38 320.239L1053.3 348.418L1085.81 361.259L1109.67 348.418L1156.17 361.259L1268.9 318.456L1344.2 307.755L1357.77 297.054V182.913L1354.07 178.633H1335.97L1303.05 161.155L1305.52 145.817L1230.23 76.262H1214.59L1206.77 68.4148L1177.97 61.2809L1163.57 68.4148L1121.19 81.6124L1105.15 87.6761L1088.69 100.16L1052.89 108.364L1043.84 96.9501L966.078 100.16L932.141 81.6124L907.653 36.6692L896.133 25.6117H861.16L844.702 10.6307L818.37 1L759.122 31.3188V48.0833L737.315 72.6951H720.034L652.912 132.908" stroke="white"/>
<path d="M653.183 133.179L600.478 153.593H554.546L545.713 142.11L531 142.11L465.625 109.959L445.309 114.041L428.231 128.841L423.5 144L411 145.5L400.5 137.5L371.993 81.8896L318.406 55.8621H265.701L240.5 99.5V112L196.508 120.676L159.703 109.959L83.7376 120.676L32.2107 142.11L16.6055 167.117" stroke="white"/>
<path d="M652.005 236.014L640.227 223.766H627.272L618.144 236.014L601.95 240.352L579.867 228.104L530.401 240.352L493.597 256.938H462.386L436.181 250.304L427.642 236.014H412.92H387.304L371.993 240.352H354.916H328.711L306.628 236.014L251.568 240.352M120.542 250.304L116.42 244.18H78.143L42.8104 231.931L5.12215 220.193L1 208.455L17 166" stroke="white"/>
<path d="M120.363 250L151.001 265.5L203.331 266L235.575 248.84L254 239.6" stroke="white"/>
<path d="M651.734 235.347L667.369 248.544L761.59 272.086L803.969 261.385L808.083 252.111L828.656 245.334L852.108 248.544L899.424 239.627L914.236 267.092L950.855 285.997L966.078 277.436L984.182 283.143L996.525 299.908L1034.38 320.239L1053.3 348.418L1085.81 361.259L1109.67 348.418L1156.17 361.259L1268.9 318.456L1344.2 307.755L1357.77 297.054V182.913L1354.07 178.633H1335.97L1303.05 161.155L1305.52 145.817L1230.23 76.262H1214.59L1206.77 68.4148L1177.97 61.2809L1163.57 68.4148L1121.19 81.6124L1105.15 87.6761L1088.69 100.16L1052.89 108.364L1043.84 96.9501L966.078 100.16L932.141 81.6124L907.653 36.6692L896.133 25.6117H861.16L844.702 10.6307L818.37 1L759.122 31.3188V48.0833L737.315 72.6951H720.034L652.912 132.908" stroke="white"/>
</svg>
