<svg width="1359" height="362" viewBox="0 0 1359 362" fill="none" xmlns="http://www.w3.org/2000/svg">
<path d="M651.734 235.347L667.369 248.544L761.59 272.086L803.969 261.385L808.083 252.111L828.656 245.334L852.108 248.544L899.424 239.627L914.236 267.092L950.855 285.997L966.078 277.436L984.182 283.143L996.525 299.908L1034.38 320.239L1053.3 348.418L1085.81 361.259L1109.67 348.418L1156.17 361.259L1268.9 318.456L1344.2 307.755L1357.77 297.054V182.913L1354.07 178.633H1335.97L1303.05 161.155L1305.52 145.817L1230.23 76.262H1214.59L1206.77 68.4148L1177.97 61.2809L1163.57 68.4148L1121.19 81.6124L1105.15 87.6761L1088.69 100.16L1052.89 108.364L1043.84 96.9501L966.078 100.16L932.141 81.6124L907.653 36.6692L896.133 25.6117H861.16L844.702 10.6307L818.37 1L759.122 31.3188V48.0833L737.315 72.6951H720.034L652.912 132.908" stroke="black"/>
<path d="M653.183 133.179L600.478 153.593H554.546L545.713 142.11L531 142.11L465.625 109.959L445.309 114.041L428.231 128.841L423.5 144L411 145.5L400.5 137.5L371.993 81.8896L318.406 55.8621H265.701L240.5 99.5V112L196.508 120.676L159.703 109.959L83.7376 120.676L32.2107 142.11L16.6055 167.117" stroke="black"/>
<path d="M652.005 236.014L640.227 223.766H627.272L618.144 236.014L601.95 240.352L579.867 228.104L530.401 240.352L493.597 256.938H462.386L436.181 250.304L427.642 236.014H412.92H387.304L371.993 240.352H354.916H328.711L306.628 236.014L251.568 240.352M120.542 250.304L116.42 244.18H78.143L42.8104 231.931L5.12215 220.193L1 208.455L17 166" stroke="black"/>
<path d="M598 190L607.233 222L619 192.08" stroke="black"/>
<path d="M428.5 129L460.66 143.303M460.66 143.303L445.5 114.5M460.66 143.303L466 111L479.596 131.758M460.66 143.303L479.596 131.758M479.596 131.758L530.774 141.971L532.822 161.065M479.596 131.758L532.822 161.065M479.596 131.758L562.5 232.5L583.5 227L479.596 131.758ZM532.822 161.065L557.899 153.96" stroke="black"/>
<path d="M607.5 239L607 221.5M607 221.5L583.5 227M607 221.5L617.5 236L627.5 223.5M607 221.5L627.5 223.5M627.5 223.5L666.5 200M666.5 200L640 223.5L651.5 235.111L666.5 200Z" stroke="black"/>
<path d="M606 222L667 199" stroke="black"/>
<path d="M577.838 186.494L605.135 154L607.711 186.049L577.838 186.494ZM577.838 186.494L532 161.567M577.838 186.494L583.504 227M577.838 186.494L607.711 221.659M577.838 186.494L620.071 192.474L653.549 196.287M607.711 221.659L666 199L653.549 196.287M607.711 221.659L653.549 196.287" stroke="black"/>
<path d="M607 186L650 195" stroke="black"/>
<path d="M608 185.462L658.92 133L652.81 195L691 144.706" stroke="black"/>
<path d="M459.749 143L462.821 144.735M462.821 144.735L513 173.077L462.821 212L390.113 185.462L364 153.173L462.821 144.735Z" stroke="black"/>
<path d="M445.126 174.927L462.993 145M445.126 174.927H512M445.126 174.927L391.524 185.647M445.126 174.927L462.993 212M445.126 174.927L366 153.487" stroke="black"/>
<path d="M509.832 218.438L497.745 257L464 212.676L509.832 218.438ZM509.832 218.438L512.854 175L533 241.486L509.832 218.438Z" stroke="black"/>
<path d="M391 234.868V186L403.852 206.252M391 234.868L435.211 203.61M391 234.868L403.852 206.252M435.211 203.61L431.099 234.868L464 212.415M435.211 203.61L403.852 206.252M464 212.415V256L441.894 248.956L464 212.415Z" stroke="black"/>
<path d="M300.4 101.859L270.756 57L314.711 80.0957M300.4 101.859L262.067 136.947M300.4 101.859L309.6 224M300.4 101.859L374 82.7606L314.711 80.0957M300.4 101.859L314.711 80.0957M300.4 101.859L285.067 150.271M262.067 136.947L259 190.245M262.067 136.947L285.067 150.271M259 190.245L285.067 150.271M259 190.245L278.974 203.569M309.6 224L278.974 203.569M309.6 224L285.067 150.271M322.378 57L314.711 80.0957M285.067 150.271L278.974 203.569" stroke="black"/>
<path d="M364.92 153.639L301 102L410.5 146L364.92 153.639ZM364.92 153.639L311.227 223.974M364.92 153.639L369.523 182.129M311.227 223.974V235.548L332.193 240L311.227 223.974ZM311.227 223.974L369.523 182.129M332.193 239.11L369.523 182.129M369.523 182.129L376.17 240L389.977 234.658L369.523 182.129ZM369.523 182.129L391 187.026" stroke="black"/>
<path d="M269 56L261.444 139.361M261.444 139.361L240.789 99.241V112.169M261.444 139.361L240.789 112.169M261.444 139.361L230.714 155.118M261.444 139.361L240.789 132.675M240.789 112.169L230.714 132.675M240.789 112.169V132.675M207.541 167L202 120.193L230.714 132.675M207.541 167L230.714 132.675M207.541 167L230.714 155.118M230.714 132.675V155.118M230.714 132.675H240.789M230.714 155.118L240.789 132.675" stroke="black"/>
<path d="M208 166.5L253.909 240L259.52 190.528L309 234.699" stroke="black"/>
<path d="M208 165.86L116 244H78.5M208 165.86L78.5 244M208 165.86L162.944 110M208 165.86L120.448 208.863M78.5 244L94.848 157.88M78.5 244L97.92 215.513M78.5 244L120.448 208.863M162.944 110L94.848 157.88M162.944 110L108.672 198.223M94.848 157.88L97.92 215.513M97.92 215.513L108.672 198.223M97.92 215.513L120.448 208.863M108.672 198.223L120.448 208.863" stroke="black"/>
<path d="M206.913 167L151.638 266M206.913 167L121 250.5L151.638 266M206.913 167L203.331 266M206.913 167L235.575 248.84M151.638 266H203.331M203.331 266L235.575 248.84M235.575 248.84L254 239.6" stroke="black"/>
<path d="M94.5 158L45.5 137L84 120.5L94.5 158ZM94.5 158L65.9239 173.346M94.5 158L65.9239 239M65.9239 173.346L32.5 143L46 218.594M65.9239 173.346L46 218.594M65.9239 173.346V239M46 218.594V233L65.9239 239" stroke="black"/>
<path d="M651.734 235.347L667.369 248.544L761.59 272.086L803.969 261.385L808.083 252.111L828.656 245.334L852.108 248.544L899.424 239.627L914.236 267.092L950.855 285.997L966.078 277.436L984.182 283.143L996.525 299.908L1034.38 320.239L1053.3 348.418L1085.81 361.259L1109.67 348.418L1156.17 361.259L1268.9 318.456L1344.2 307.755L1357.77 297.054V182.913L1354.07 178.633H1335.97L1303.05 161.155L1305.52 145.817L1230.23 76.262H1214.59L1206.77 68.4148L1177.97 61.2809L1163.57 68.4148L1121.19 81.6124L1105.15 87.6761L1088.69 100.16L1052.89 108.364L1043.84 96.9501L966.078 100.16L932.141 81.6124L907.653 36.6692L896.133 25.6117H861.16L844.702 10.6307L818.37 1L759.122 31.3188V48.0833L737.315 72.6951H720.034L652.912 132.908" stroke="black"/>
<path d="M721.155 127.407L782.809 244.3M721.155 127.407L658.603 224.883L709.496 233.815M721.155 127.407L827.2 96.7276M721.155 127.407L762.183 182.359M721.155 127.407L785.064 152.223M782.809 244.3L709.496 233.815M782.809 244.3L761.5 272M782.809 244.3L667.5 248.5M782.809 244.3L804 261M782.809 244.3L808 252L805.677 218.863M782.809 244.3V211.096M782.809 244.3L805.677 218.863M709.496 233.815L667.5 248.5M709.496 233.815L652 235.5M667.5 248.5L652 235.5M652 235.5L690.664 142.164M827.2 96.7276L881.681 133.232M827.2 96.7276L828.994 72.4558M827.2 96.7276L785.064 152.223M762.183 182.359L868.677 184.689M762.183 182.359L782.809 211.096M762.183 182.359L828.994 212.65M762.183 182.359L785.064 152.223M868.677 184.689L899 239L828.994 212.65M868.677 184.689L872.74 168.61M868.677 184.689L951.406 257.116M868.677 184.689L852.535 156.728M868.677 184.689L785.064 152.223M782.809 211.096L828.994 212.65M805.677 218.863L828.994 212.65M805.677 218.863L828.994 245M828.994 212.65L852 248.5M881.681 133.232L828.994 72.4558M881.681 133.232L872.74 168.61M881.681 133.232L852.535 156.728M881.681 133.232L785.064 152.223M881.681 133.232L887.635 121.486M828.994 72.4558L897.823 101.388M897.823 101.388L881.681 77.0198M897.823 101.388H926.5M897.823 101.388L887.635 121.486M872.74 63.5237L849 29L861 25.5L872.74 63.5237ZM872.74 63.5237L896 26M872.74 63.5237L907.5 37M872.74 63.5237L919.57 76.7276L881.681 77.0198M872.74 63.5237L881.681 77.0198M881.681 77.0198L926.5 101.388M926.5 101.388L910.602 108.378M965.755 130.514L883.923 133.232L976.517 198.087M965.755 130.514L872.74 168.61M965.755 130.514L999.833 138.281M965.755 130.514L1044.22 97.6985M965.755 130.514L1089.5 100M965.755 130.514L927 101.5L924.503 109.432M872.74 168.61L951.406 257.116M872.74 168.61L999.833 138.281M951.406 257.116L950.5 285.5L915 267L951.406 257.116ZM951.406 257.116L966 277L989.52 253.232M951.406 257.116L989.52 253.232M951.406 257.116L976.517 198.087M951.406 257.116L976.517 235.951M852.535 156.728L785.064 152.223M1277.84 234.98L1210.8 199.058M1277.84 234.98L1241.74 145.077M1277.84 234.98L1304.07 237.31M1277.84 234.98L1233.9 280.805M1210.8 199.058L1241.74 145.077M1210.8 199.058L1206.54 255.951M1210.8 199.058L1202.06 193.815M1210.8 199.058L1174.71 267.836M1210.8 199.058L1233.9 280.805M1241.74 145.077L1304.07 237.31M1241.74 145.077L1173.59 103.524M1241.74 145.077L1202.06 159.446M1241.74 145.077L1210.8 165.077M1304.07 237.31L1335.23 179.252M1304.07 237.31L1270.89 294.98M1304.07 237.31L1357.5 254.5M1304.07 237.31L1342.63 219.058M1304.07 237.31L1233.9 280.805M1335.23 179.252L1342.63 219.058M1335.23 179.252L1357.5 194.5V212.5L1342.63 219.058M1270.89 294.98L1297.79 282.083M1270.89 294.98L1233.9 280.805M1357.5 254.5L1342.63 219.058M1357.5 254.5L1313.49 274.56M1357.5 254.5L1358 267.5L1313.49 274.56M1342.63 219.058L1358 223M1297.79 282.083V314.397L1313.49 274.56M1297.79 282.083L1313.49 274.56M1297.79 282.083L1268.5 318L1233.9 280.805M1313.49 274.56L1344 307.5M1313.49 274.56L1357.5 297M1227.17 119.058L1303 161L1305.5 146L1227.17 119.058ZM1227.17 119.058L1229.5 76.5L1173.59 76.7787M1227.17 119.058L1173.59 76.7787M1227.17 119.058L1122.5 81.5M1164 68.5L1173.59 76.7787M1178 61L1173.59 76.7787M1173.59 76.7787L1207 68.5M1122.5 81.5L1139.51 97.6985M1122.5 81.5L1173.59 103.524M1139.51 97.6985L1106 88M1139.51 97.6985L1089.5 100M1139.51 97.6985L1132.56 121.486M1139.51 97.6985L1173.59 103.524M1089.5 100L1120.9 161.388M1089.5 100L1132.56 121.486M1120.9 161.388L1148.48 220.611M1120.9 161.388L1170.9 140.223M1120.9 161.388L1132.56 121.486M1120.9 161.388L1113.05 235.534M1120.9 161.388L1102.29 176.728M1120.9 161.388L999.833 138.281M1148.48 220.611L1167.53 237.31M1148.48 220.611L1155.57 195.174M1170.9 140.223L1132.56 121.486M1170.9 140.223L1173.59 103.524M1170.9 140.223L1184.12 123.912M1170.9 140.223L1184.12 146.825M1170.9 140.223L1159.42 181.388M1132.56 121.486L1173.59 103.524M1173.59 103.524L1184.12 123.912M1184.12 123.912V146.825M1202.06 159.446L1210.8 165.077M1202.06 159.446L1184.12 146.825M1210.8 165.077L1208.34 183.912M1210.8 165.077L1159.42 181.388M1184.12 146.825L1159.42 181.388M1159.42 181.388L1155.57 195.174M1159.42 181.388L1182.84 213.531M1159.42 181.388L1208.34 183.912M1167.53 237.31L1155.57 195.174M1167.53 237.31L1168.58 235.951M1167.53 237.31L1113.05 235.534M1155.57 195.174L1182.84 213.531M1184.12 214.397L1182.84 213.531M1208.34 183.912L1184.12 215.757L1168.58 235.951M1174.71 230.126V267.836M1175 341.5L1155.57 274.98M1175 341.5L1137.72 342.553M1175 341.5L1174.71 267.836M1155.57 274.98L1168.58 235.951M1155.57 274.98L1137.72 342.553M1155.57 274.98L1127.85 338.281M1155.57 274.98L1174.71 267.836M1137.72 342.553L1127.85 338.281M1137.72 342.553L1156 361L1233.9 280.805M1137.72 342.553L1109.5 348.5L1127.85 338.281M1127.85 338.281H1097.58M1127.85 338.281L1124.94 314.786M1097.58 338.281L1085.5 361L1053.5 348.5M1097.58 338.281L1053.5 348.5M1097.58 338.281L1046.5 295M1097.58 338.281L1124.94 314.786M1053.5 348.5L1046.5 295M1046.5 295L1124.94 314.786M1124.94 314.786L1113.05 235.534M1124.94 314.786L1059.02 265.66M1072.25 234.203L1059.02 265.66M1072.25 234.203L1113.05 235.534M1072.25 234.203L1026.06 195.174M1059.02 265.66L1034.5 320L1011.27 260.805M1059.02 265.66L1113.05 235.534M1059.02 265.66L1057.4 264.232M1113.05 235.534L1111.48 234.806M986.381 201.582L1026.06 195.174M986.381 201.582L1057.4 264.232M986.381 201.582L999.833 138.281M986.381 201.582L976.517 235.951M986.381 201.582L1011.27 260.805M1026.06 195.174L999.833 138.281M1026.06 195.174L1057.4 264.232M1026.06 195.174L1111.48 234.806M1026.06 195.174L1102.29 176.728M999.833 138.281L1102.29 176.728M999.833 138.281L976.517 198.087M1102.29 176.728L1111.48 234.806M976.517 235.951L1011.27 260.805M1011.27 260.805L996.5 300M1011.27 260.805L989.52 253.232M989.52 253.232L984.5 283M895.5 132.848L887.635 121.486M895.5 132.848L924.503 109.432M895.5 132.848L910.602 108.378M887.635 121.486L910.602 108.378M910.602 108.378L924.503 109.432M1206.54 255.951L1174.71 267.836M1206.54 255.951L1233.9 280.805M1174.71 267.836L1233.9 280.805" stroke="black"/>
<path d="M807.023 41.5823L759.493 48.7668L829.891 72.8444M807.023 41.5823L848.5 29.5L829.891 72.8444M807.023 41.5823L829.891 72.8444M829.891 72.8444L691.561 141.776M691.561 141.776L739.315 72.8444H721.155L691.561 141.776ZM691.561 141.776L655 178.5M691.561 141.776L657.5 151" stroke="black"/>
<path d="M907.5 37.5L926.5 101L1044.67 96.7281" stroke="black"/>
<path d="M759.27 48.3786L792.5 14.5L807.472 41.1942L818.5 1.5L848.5 29L845.362 10.7087" stroke="black"/>
<path d="M32.5 143.5L28.5 167M28.5 167L1.5 209L6 220.5L28.5 167ZM28.5 167L46 218" stroke="black"/>
</svg>
