<svg width="1280" height="362" viewBox="0 0 1280 362" fill="none" xmlns="http://www.w3.org/2000/svg">
<path d="M605.734 235.347L621.369 248.544L715.59 272.086L757.969 261.385L762.083 252.111L782.656 245.334L806.108 248.544L853.424 239.627L868.236 267.092L904.855 285.997L920.078 277.436L938.182 283.143L950.525 299.908L988.378 320.239L1007.3 348.418L1039.81 361.259L1063.67 348.418L1110.17 361.259L1222.9 318.456L1298.2 307.755L1311.77 297.054V182.913L1308.07 178.633H1289.97L1257.05 161.155L1259.52 145.817L1184.23 76.262H1168.59L1160.77 68.4148L1131.97 61.2809L1117.57 68.4148L1075.19 81.6124L1059.15 87.6761L1042.69 100.16L1006.89 108.364L997.841 96.9501L920.078 100.16L886.141 81.6124L861.653 36.6692L850.133 25.6117H815.16L798.702 10.6307L772.37 1L713.122 31.3188V48.0833L691.315 72.6951H674.034L606.912 132.908" stroke="black"/>
<path d="M607.183 133.179L554.478 153.593H508.546L499.713 142.11H482.046L419.625 109.959L399.309 114.041L382.231 128.841L377.5 144L365 145.5L354.5 137.5L325.993 81.8897L272.406 55.8622H219.701L190.846 102.304V114.041L150.508 120.676L113.703 109.959L37.7376 120.676L-13.7893 142.11L-29.3945 167.117" stroke="black"/>
<path d="M606.005 236.014L594.227 223.766H581.272L572.144 236.014L555.95 240.352L533.867 228.104L484.402 240.352L447.597 256.938H416.386L390.181 250.304L381.642 236.014H366.92H341.304L325.993 240.352H308.916H282.711L260.628 236.014L205.568 240.352L153.158 265.614H125.48H101.336L97.803 263.828L74.5423 250.304L70.4201 244.18H32.143L-3.18965 231.931L-40.8779 220.193L-45 208.455L-27.3337 162.524" stroke="black"/>
</svg>
