<svg width="1402" height="228" viewBox="0 0 1402 228" fill="none" xmlns="http://www.w3.org/2000/svg">
<path fill-rule="evenodd" clip-rule="evenodd" d="M12.4409 14.0249L20.9135 1.56524L20.0865 1.00293L11.5591 13.5433L0 40.682V111.451L47.1806 174.3L76.6044 186.856L95.385 181.123L108.682 195.902L134.982 186.824H163.704L187.215 166.844H214.247L280.054 130.949L307.864 145.884L329.395 166.815L379.753 174.403L451.322 153.087L515.448 158.834L523.644 166.844H544.742L624.985 186.824H641.768L653.507 194.203L675.406 195.82L675.415 195.82L692.991 197.425L693.019 197.428L713.366 200.438L735.101 205.252L749.408 210.458L764.884 218.474L772.385 223.354L812.87 226.786L843.935 224.774L843.961 224.773L936.412 223.567L960.264 222.16H978.393L992.453 219.111L1007.77 208.037L1022.23 203.256L1044.83 201.856L1088.08 208.075L1088.11 208.081L1133.25 217.721L1133.27 217.726L1167.6 226.58L1181.96 227.39L1198.58 224.749L1213.44 214.076L1235.09 208.08L1270.78 205.073L1314.66 211.897L1362.4 223.96L1373.78 225.811L1401.06 201.526L1394 173.223V138.77L1394 138.755L1390.47 77.7841H1373.62V78.7841H1389.53L1393 138.784V173.345L1399.94 201.181L1373.47 224.747L1362.62 222.985L1362.58 222.976L1314.86 210.916L1270.82 204.067L1234.91 207.092L1213 213.16L1198.19 223.799L1181.91 226.385L1167.75 225.587L1133.5 216.753L1133.49 216.75L1133.48 216.748L1088.29 207.097L1088.27 207.094L1044.87 200.851L1022.04 202.266L1007.31 207.136L992.036 218.178L978.286 221.16H960.249L936.388 222.567L936.365 222.568L843.909 223.774L812.88 225.783L772.719 222.379L765.388 217.608L749.811 209.54L735.381 204.29L713.548 199.454L693.123 196.433L675.497 194.824L653.828 193.224L642.056 185.824H625.107L544.864 165.844H524.051L515.892 157.87L451.22 152.074L379.681 173.381L329.862 165.874L308.461 145.069L280.05 129.812L213.992 165.844H186.847L163.337 185.824H134.815L108.982 194.741L95.7023 179.981L76.6613 185.793L47.8194 173.485L1 111.117V40.8861L12.4409 14.0249Z" fill="white"/>
<path fill-rule="evenodd" clip-rule="evenodd" d="M19.77 0L57.4658 11.7403L92.7264 23.9636H131.185L135.456 30.3085L134.627 30.8669L130.653 24.9636H92.558L57.1533 12.6903L19.4727 0.954765L19.77 0ZM641.52 3.54979H654.939L666.865 15.9515L666.144 16.6446L654.514 4.54979H642.022L632.941 16.7361L616.384 21.1712L594.296 8.9203L545.065 21.1104L508.203 37.7222H476.823L450.357 31.0217L441.858 16.7981H401.873L386.562 21.136H343.161L321.098 16.8019L266.106 21.1344L266.028 20.1375L321.156 15.7942L343.259 20.136H386.423L401.734 15.7981H442.425L451.003 30.1537L476.948 36.7222H507.988L544.737 20.1615L594.437 7.85513L616.515 20.1007L632.346 15.86L641.52 3.54979Z" fill="white"/>
<path fill-rule="evenodd" clip-rule="evenodd" d="M250.309 29.5653L268.723 20.3309L268.275 19.437L249.85 28.677L217.707 45.7828L165.622 45.285L135.088 29.8377L134.637 30.73L165.379 46.2827L217.952 46.7852L250.309 29.5653Z" fill="white"/>
<path fill-rule="evenodd" clip-rule="evenodd" d="M682.105 28.3712L776.092 51.8543L818.113 41.2439L822.219 31.9896L843.111 25.1069L866.598 28.3218L914.193 19.3519L929.105 47.0028L965.347 65.7129L980.524 57.1782L998.99 62.9995L1011.36 79.8047L1049.23 100.141L1068.14 128.294L1100.28 140.992L1124.11 128.167L1170.64 141.017L1283.28 98.2526L1358.52 87.5593L1373.73 77.8623L1374.27 78.7056L1358.88 88.5189L1283.53 99.227L1170.69 142.068L1124.24 129.237L1100.34 142.093L1067.48 129.11L1048.53 100.905L1010.69 80.579L998.378 63.8551L980.637 58.2622L965.367 66.8488L928.372 47.7496L913.66 20.47L866.623 29.3346L843.205 26.129L822.953 32.8006L818.83 42.0943L776.093 52.8854L681.638 29.2851L665.914 16.0127L666.559 15.2485L682.105 28.3712Z" fill="white"/>
</svg>
