<svg width="1402" height="229" viewBox="0 0 1402 229" fill="none" xmlns="http://www.w3.org/2000/svg">
<path fill-rule="evenodd" clip-rule="evenodd" d="M12.9409 14.7407L21.4135 2.28106L20.5865 1.71875L12.0591 14.2591L0.5 41.3979V112.167L47.6806 175.015L77.1044 187.572L95.885 181.839L109.182 196.618L135.482 187.54H164.204L187.715 167.56H214.747L280.554 131.665L308.364 146.6L329.895 167.531L380.253 175.119L451.822 153.803L515.948 159.55L524.144 167.56H545.242L625.485 187.54H642.268L654.007 194.918L675.906 196.535L675.915 196.536L693.491 198.14L693.519 198.144L713.866 201.154L735.601 205.968L749.908 211.173L765.384 219.189L772.885 224.07L813.37 227.501L844.435 225.49L844.461 225.489L936.912 224.283L960.764 222.876H978.893L992.953 219.826L1008.27 208.752L1022.73 203.972L1045.33 202.571L1088.58 208.791L1088.61 208.797L1133.75 218.437L1133.77 218.442L1168.1 227.296L1182.46 228.106L1199.08 225.465L1213.94 214.792L1235.59 208.796L1271.28 205.789L1315.16 212.612L1362.9 224.675L1374.28 226.527L1401.56 202.242L1394.5 173.939V139.485L1394.5 139.471L1390.97 78.4999H1374.12V79.4999H1390.03L1393.5 139.5V174.061L1400.44 201.897L1373.97 225.463L1363.12 223.701L1363.08 223.692L1315.36 211.631L1271.32 204.783L1235.41 207.808L1213.5 213.875L1198.69 224.514L1182.41 227.101L1168.25 226.303L1134 217.468L1133.99 217.466L1133.98 217.464L1088.79 207.813L1088.77 207.809L1045.37 201.567L1022.54 202.981L1007.81 207.851L992.536 218.894L978.786 221.876H960.749L936.888 223.283L936.865 223.284L844.409 224.49L813.38 226.499L773.219 223.095L765.888 218.324L750.311 210.256L735.881 205.006L714.048 200.17L693.623 197.149L675.997 195.539L654.328 193.939L642.556 186.54H625.607L545.364 166.56H524.551L516.392 158.586L451.72 152.79L380.181 174.097L330.362 166.59L308.961 145.785L280.55 130.528L214.492 166.56H187.347L163.837 186.54H135.315L109.482 195.457L96.2023 180.697L77.1613 186.509L48.3194 174.201L1.5 111.833V41.602L12.9409 14.7407Z" fill="black"/>
<path fill-rule="evenodd" clip-rule="evenodd" d="M20.27 0.71582L57.9658 12.4561L93.2264 24.6794H131.685L135.956 31.0243L135.127 31.5827L131.153 25.6794H93.058L57.6533 13.4062L19.9727 1.67059L20.27 0.71582ZM642.02 4.26561H655.439L667.365 16.6673L666.644 17.3604L655.014 5.26561H642.522L633.441 17.4519L616.884 21.8871L594.796 9.63612L545.565 21.8263L508.703 38.438H477.323L450.857 31.7375L442.358 17.5139H402.373L387.062 21.8518H343.661L321.598 17.5177L266.606 21.8503L266.528 20.8534L321.656 16.51L343.759 20.8518H386.923L402.234 16.5139H442.925L451.503 30.8696L477.448 37.438H508.488L545.237 20.8773L594.937 8.57095L617.015 20.8166L632.846 16.5758L642.02 4.26561Z" fill="black"/>
<path fill-rule="evenodd" clip-rule="evenodd" d="M250.809 30.2812L269.223 21.0467L268.775 20.1528L250.35 29.3928L218.207 46.4986L166.122 46.0008L135.588 30.5535L135.137 31.4458L165.879 46.9985L218.452 47.501L250.809 30.2812Z" fill="black"/>
<path fill-rule="evenodd" clip-rule="evenodd" d="M682.605 29.0871L776.592 52.5702L818.613 41.9597L822.719 32.7054L843.611 25.8227L867.098 29.0376L914.693 20.0677L929.605 47.7186L965.847 66.4287L981.024 57.8941L999.49 63.7153L1011.86 80.5205L1049.73 100.857L1068.64 129.01L1100.78 141.708L1124.61 128.882L1171.14 141.733L1283.78 98.9685L1359.02 88.2751L1374.23 78.5781L1374.77 79.4214L1359.38 89.2347L1284.03 99.9429L1171.19 142.784L1124.74 129.953L1100.84 142.809L1067.98 129.826L1049.03 101.621L1011.19 81.2948L998.878 64.5709L981.137 58.9781L965.867 67.5646L928.872 48.4654L914.16 21.1858L867.123 30.0504L843.705 26.8449L823.453 33.5164L819.33 42.8102L776.593 53.6012L682.138 30.001L666.414 16.7285L667.059 15.9644L682.605 29.0871Z" fill="black"/>
</svg>
