<svg width="1280" height="224" viewBox="0 0 1280 224" fill="none" xmlns="http://www.w3.org/2000/svg">
<path d="M758 38.5L715.5 49L621.5 25.5L606 13L594 0.5H581.5L572 13L556 17.5L534 5L484.5 17.5L447.5 34H416.5L390 27.5L381.5 13H341.5L326.883 17.316H282.928L261 13L205.5 17L153.35 42.5H101.5L74.5 27.5L70.5 21.5L32 21L-13 5.772V169.608L16.1328 182.04L35.0436 176.268L48.3323 191.037L74.3985 182.04H103.02L126.531 162.06H153.619L219.552 126.096L247.662 141.192L269.129 162.06L319.217 169.608L390.771 148.296L455.17 154.068L463.348 162.06H476.636H484.303L564.546 182.04H581.412L593.168 189.429L614.952 191.037L632.564 192.646L652.957 195.662L674.741 200.487L689.109 205.714L704.636 213.757L712.052 218.582L752.375 222L783.429 219.989L875.894 218.783L899.764 217.376H917.84L931.745 214.36L947.04 203.302L961.639 198.476L984.35 197.069L1027.69 203.302L1072.88 212.952L1107.17 221.799L1121.43 222.603L1137.88 219.989L1152.72 209.333L1174.5 203.302L1210.3 200.286L1254.26 207.122L1302 219.185L1313.12 220.995L1310.88 75L1299 84.5L1261.5 90L1223 95.5L1110 138.5L1064 125.5L1040 138L1007 125.5L988.5 97L950.5 77L938 60L920 54.5L905 63L868.5 44L853.5 16.5L806 25.5L782.5 22.5L762 29L758 38.5Z" stroke="black"/>
</svg>
