<svg width="1280" height="188" viewBox="0 0 1280 188" fill="none" xmlns="http://www.w3.org/2000/svg">
<path d="M673 37.5L645 36.5L624 32.5L612.5 31H600.5L582.5 21L555 19.5H538L497 13.5L440.5 21H421H402.5L387.5 15L383.5 13.5L375 1H349.474L317 12.9571H276.868H259.5L228.805 16.406L195 19.5L162 12.9571H118L48.5 20.0429H25.303H-11V187H25.303L107.624 167.957H131.656H162.334L200.683 180.8H276.868H301.411H349.474L402.65 159.543H421.057H445.6L485.482 167.957H560.645L607.686 176.814L616.736 167.957H681.314L719.151 180.8L791.246 164.857H816.812H837.264L875.298 152.014H891.39L901.689 159.543L963.046 167.957H1057.31L1125.13 159.543L1208.99 167.957H1250.2H1278.47H1300V96.3389L1281 101L1238.5 95L1220 88.5L1209.5 83L1202.74 77.0643L1189 64.5L1176.5 56.5L1163 55H1145.5L1128 56.5L1104.5 68.5L1091 82L1056.5 93.5L1010.5 94.5L941 95L915 85.5L902 72.5L892 56.5L884 42.5L875.5 30L866 21L836 13.5H815L781.5 19.5L749.5 29L736.5 32.5L693 37.5H673Z" stroke="black"/>
</svg>
