<svg width="1325" height="188" viewBox="0 0 1325 188" fill="none" xmlns="http://www.w3.org/2000/svg">
<path d="M1324 101.5V167.914H1302.47H1274.2H1232.99L1149.13 159.5L1081.31 167.914H987.046L925.689 159.5L915.39 151.971H899.298L861.264 164.814H840.812H815.246L743.151 180.757L705.314 167.914H640.736L631.686 176.771L584.645 167.914H509.482L469.6 159.5H445.057H426.65L373.474 180.757H325.411H300.868H224.683L186.334 167.914H155.656H131.624L49.303 186.957H0.5V20" stroke="white"/>
<path d="M1325 101.621H1300.8L1277.97 98.4964L1251.28 94.5913L1232.97 87.9525L1222.56 82.6806L1212.16 73.3082L1201.99 64.3264L1189.32 56.3208L1176.43 54.7588H1158.8L1140.48 56.3208L1117.42 68.2315L1103.85 81.7043L1070.15 92.834L1050.48 93.615L954.604 94.7865L943.749 91.0766L927.92 84.8284L914.805 71.9414L905.986 57.8829L897.167 42.067L888.8 29.961L878.851 20.3934L848.776 13.1689H828.198L795.41 19.2219L749.856 26.8369L731.765 28.9848L706.439 31.9136H684.279L658.5 30.7421L637 31.9136L625.588 30.7421H613.151L595.253 20.3934L568.149 19.2219H550.762L509.851 13.1689L453.599 20.3934H415.245L396.835 13.1689L387.63 1H364.107L330.355 13.1689H272.057L207.623 19.2219L174.894 13.1689H131.426L61.8777 19.2219L0 20.3934" stroke="white"/>
</svg>
